{
  "accessors": [
    {
      "bufferView": 2,
      "componentType": 5126,
      "count": 36994,
      "max": [
        15.74583625793457,
        5.657073020935059,
        7.915342807769775
      ],
      "min": [
        -11.761466026306152,
        -4.079217910766602,
        -5.354668140411377
      ],
      "type": "VEC3"
    },
    {
      "bufferView": 2,
      "byteOffset": 443928,
      "componentType": 5126,
      "count": 36994,
      "max": [
        0.9997395873069763,
        0.9999973773956299,
        0.9999227523803711
      ],
      "min": [
        -0.9999910593032837,
        -0.9999709129333496,
        -0.9999967813491821
      ],
      "type": "VEC3"
    },
    {
      "bufferView": 1,
      "componentType": 5126,
      "count": 36994,
      "max": [
        0.9732000231742859,
        1.0
      ],
      "min": [
        0.00019999999494757503,
        0.0
      ],
      "type": "VEC2"
    },
    {
      "bufferView": 0,
      "componentType": 5125,
      "count": 209427,
      "type": "SCALAR"
    }
  ],
  "asset": {
    "extras": {
      "author": "urheilumuseo (https://sketchfab.com/urheilumuseo)",
      "license": "CC-BY-4.0 (http://creativecommons.org/licenses/by/4.0/)",
      "source": "https://sketchfab.com/3d-models/hanno-mottolas-basketball-shoe-279cb48afa8a4a91a765b371b2aa9107",
      "title": "Hanno Möttölä's Basketball Shoe"
    },
    "generator": "Sketchfab-12.68.0",
    "version": "2.0"
  },
  "bufferViews": [
    {
      "buffer": 0,
      "byteLength": 837708,
      "name": "floatBufferViews",
      "target": 34963
    },
    {
      "buffer": 0,
      "byteLength": 295952,
      "byteOffset": 837708,
      "byteStride": 8,
      "name": "floatBufferViews",
      "target": 34962
    },
    {
      "buffer": 0,
      "byteLength": 887856,
      "byteOffset": 1133660,
      "byteStride": 12,
      "name": "floatBufferViews",
      "target": 34962
    }
  ],
  "buffers": [
    {
      "byteLength": 2021516,
      "uri": "scene.bin"
    }
  ],
  "images": [
    {
      "uri": "textures/material_0.001_baseColor.jpeg"
    }
  ],
  "materials": [
    {
      "doubleSided": true,
      "name": "material_0.001",
      "pbrMetallicRoughness": {
        "baseColorTexture": {
          "index": 0
        },
        "metallicFactor": 0.0,
        "roughnessFactor": 0.9
      }
    }
  ],
  "meshes": [
    {
      "name": "Object_0",
      "primitives": [
        {
          "attributes": {
            "NORMAL": 1,
            "POSITION": 0,
            "TEXCOORD_0": 2
          },
          "indices": 3,
          "material": 0,
          "mode": 4
        }
      ]
    }
  ],
  "nodes": [
    {
      "children": [
        1
      ],
      "matrix": [
        1.0,
        0.0,
        0.0,
        0.0,
        0.0,
        2.220446049250313e-16,
        -1.0,
        0.0,
        0.0,
        1.0,
        2.220446049250313e-16,
        0.0,
        0.0,
        0.0,
        0.0,
        1.0
      ],
      "name": "Sketchfab_model"
    },
    {
      "children": [
        2
      ],
      "name": "mottolan_pelikenka_2641ab.obj.cleaner.materialmerger.gles"
    },
    {
      "mesh": 0,
      "name": "Object_2"
    }
  ],
  "samplers": [
    {
      "magFilter": 9729,
      "minFilter": 9987,
      "wrapS": 10497,
      "wrapT": 10497
    }
  ],
  "scene": 0,
  "scenes": [
    {
      "name": "Sketchfab_Scene",
      "nodes": [
        0
      ]
    }
  ],
  "textures": [
    {
      "sampler": 0,
      "source": 0
    }
  ]
}
